<svg width="18" height="18" viewBox="0 0 18 18" fill="none" xmlns="http://www.w3.org/2000/svg">
<path d="M12.7593 1.68677H5.54966C3.55877 1.68677 1.94482 3.30071 1.94482 5.29161V12.5013C1.94482 14.4922 3.55877 16.1061 5.54966 16.1061H12.7593C14.7502 16.1061 16.3642 14.4922 16.3642 12.5013V5.29161C16.3642 3.30071 14.7502 1.68677 12.7593 1.68677Z" stroke="#FFF8F8" stroke-width="2" stroke-linecap="round" stroke-linejoin="round"/>
<path d="M12.0388 8.4423C12.1278 9.04233 12.0253 9.65513 11.7459 10.1935C11.4665 10.732 11.0245 11.1686 10.4827 11.4413C9.94086 11.714 9.32684 11.8089 8.72796 11.7126C8.12908 11.6162 7.57583 11.3334 7.14692 10.9045C6.718 10.4756 6.43524 9.92236 6.33888 9.32348C6.24251 8.7246 6.33743 8.11058 6.61015 7.56876C6.88286 7.02694 7.31948 6.5849 7.85789 6.30553C8.39631 6.02615 9.00911 5.92367 9.60914 6.01264C10.2212 6.1034 10.7878 6.3886 11.2253 6.82611C11.6628 7.26363 11.948 7.83026 12.0388 8.4423Z" stroke="#FFF8F8" stroke-width="2" stroke-linecap="round" stroke-linejoin="round"/>
</svg>
