<svg width="15" height="16" viewBox="0 0 15 16" fill="none" xmlns="http://www.w3.org/2000/svg">
<g clip-path="url(#clip0_305_399)">
<path fill-rule="evenodd" clip-rule="evenodd" d="M15 2.34863C15 1.31378 14.1599 0.473633 13.125 0.473633H1.875C0.840146 0.473633 0 1.31378 0 2.34863V13.5986C0 14.6335 0.840146 15.4736 1.875 15.4736H13.125C14.1599 15.4736 15 14.6335 15 13.5986V2.34863Z" fill="white"/>
<path d="M4.29961 5.70679H1.78711V13.2643H4.29961V5.70679Z" fill="#1C1B40"/>
<path d="M3.06188 2.06299C2.20228 2.06299 1.64062 2.62812 1.64062 3.36884C1.64062 4.09399 2.1852 4.67472 3.02862 4.67472H3.04485C3.92092 4.67472 4.46622 4.09399 4.46622 3.36884C4.44996 2.62812 3.92098 2.06299 3.06188 2.06299V2.06299Z" fill="#1C1B40"/>
<path d="M10.4667 5.53101C9.134 5.53101 8.53705 6.26393 8.20277 6.77873V5.70872H5.69092C5.72423 6.41762 5.69092 13.2662 5.69092 13.2662H8.20274V9.04555C8.20274 8.81964 8.21897 8.59379 8.28557 8.43233C8.46686 7.98116 8.88044 7.51382 9.57442 7.51382C10.483 7.51382 10.847 8.2071 10.847 9.22262V13.2662H13.3589V8.93228C13.3589 6.61089 12.1195 5.53101 10.4667 5.53101V5.53101Z" fill="#1C1B40"/>
</g>
<defs>
<clipPath id="clip0_305_399">
<rect width="15" height="15" fill="white" transform="translate(0 0.473633)"/>
</clipPath>
</defs>
</svg>
