<svg width="19" height="16" viewBox="0 0 19 16" fill="none" xmlns="http://www.w3.org/2000/svg">
<path d="M19 2.24883C18.301 2.55056 17.5503 2.75421 16.761 2.84479C17.5657 2.37633 18.184 1.6344 18.4756 0.750556C17.7219 1.18383 16.8881 1.49998 16.0002 1.66902C15.2887 0.933441 14.2755 0.473633 13.1537 0.473633C11.0008 0.473633 9.2565 2.16863 9.2565 4.25998C9.2565 4.55652 9.29035 4.84613 9.35687 5.12306C6.11715 4.96498 3.24506 3.45748 1.32202 1.16652C0.987059 1.72613 0.794636 2.37633 0.794636 3.07036C0.794636 4.38459 1.48296 5.54306 2.52823 6.22267C1.88978 6.20248 1.28876 6.03286 0.76316 5.74902C0.762566 5.76459 0.762566 5.78132 0.762566 5.79633C0.762566 7.63152 2.10596 9.16209 3.88944 9.50998C3.5628 9.59594 3.21834 9.64267 2.86259 9.64267C2.61078 9.64267 2.36728 9.61902 2.12972 9.57517C2.62503 11.0786 4.06523 12.1736 5.77032 12.2048C4.43702 13.2202 2.75628 13.8265 0.930045 13.8265C0.615279 13.8265 0.30467 13.8086 0 13.7734C1.72468 14.8465 3.77363 15.4736 5.97521 15.4736C13.1448 15.4736 17.0663 9.70382 17.0663 4.69959C17.0663 4.53575 17.0615 4.3719 17.0544 4.20921C17.8164 3.67556 18.4768 3.00921 19 2.24883Z" fill="white"/>
</svg>
