<svg width="22" height="16" viewBox="0 0 22 16" fill="none" xmlns="http://www.w3.org/2000/svg">
<path d="M21.2685 3.33487C21.2685 3.33487 21.0676 1.81972 20.4501 1.15262C19.6664 0.278174 18.7888 0.273023 18.3863 0.223441C15.5035 7.67615e-08 11.1795 0 11.1795 0H11.1699C11.1699 0 6.84594 7.67615e-08 3.96374 0.223441C3.56129 0.273023 2.68427 0.278174 1.89997 1.15262C1.28309 1.81972 1.08154 3.33487 1.08154 3.33487C1.08154 3.33487 0.875488 5.11274 0.875488 6.89061V8.55709C0.875488 10.3362 1.08154 12.1135 1.08154 12.1135C1.08154 12.1135 1.28245 13.628 1.89997 14.2938C2.68427 15.1682 3.71261 15.1418 4.17108 15.2333C5.81888 15.402 11.175 15.4541 11.175 15.4541C11.175 15.4541 15.5035 15.4464 18.3863 15.2255C18.7888 15.174 19.6664 15.1689 20.4501 14.2944C21.067 13.6286 21.2685 12.1141 21.2685 12.1141C21.2685 12.1141 21.4746 10.3362 21.4746 8.55773V6.89126C21.4746 5.11274 21.2685 3.33487 21.2685 3.33487Z" fill="white"/>
<path d="M8.60254 3.86353V11.5906L15.0418 7.72706L8.60254 3.86353Z" fill="#1C1B40"/>
</svg>
